<svg width="65" height="24" viewBox="0 0 65 24" fill="none" xmlns="http://www.w3.org/2000/svg">
<path d="M3.294 17.018C3.27 16.838 3.27 16.646 3.294 16.442C3.894 16.382 4.32 16.328 4.572 16.28C4.824 16.22 4.98 16.1 5.04 15.92C5.1 15.74 5.13 15.434 5.13 15.002V5.174H3.834C3.198 5.174 2.694 5.264 2.322 5.444C1.962 5.612 1.668 5.87 1.44 6.218C1.224 6.566 1.008 7.01 0.792 7.55C0.6 7.574 0.408 7.574 0.216 7.55C0.288 6.974 0.354 6.422 0.414 5.894C0.486 5.366 0.546 4.856 0.594 4.364C1.374 4.412 2.238 4.442 3.186 4.454C4.134 4.454 5.118 4.454 6.138 4.454C7.17 4.454 8.16 4.454 9.108 4.454C10.068 4.442 10.932 4.412 11.7 4.364C11.748 4.844 11.796 5.354 11.844 5.894C11.892 6.422 11.952 6.974 12.024 7.55C11.82 7.574 11.622 7.574 11.43 7.55C11.202 6.998 10.974 6.548 10.746 6.2C10.518 5.852 10.224 5.594 9.864 5.426C9.516 5.258 9.024 5.174 8.388 5.174H7.11V14.768C7.11 15.14 7.122 15.434 7.146 15.65C7.17 15.866 7.236 16.022 7.344 16.118C7.464 16.214 7.65 16.286 7.902 16.334C8.154 16.37 8.502 16.406 8.946 16.442C8.982 16.634 8.982 16.826 8.946 17.018C8.694 17.018 8.388 17.012 8.028 17C7.68 17 7.332 17 6.984 17C6.636 16.988 6.342 16.982 6.102 16.982C5.874 16.982 5.586 16.988 5.238 17C4.902 17 4.554 17 4.194 17C3.846 17.012 3.546 17.018 3.294 17.018ZM15.4059 17.216C14.6259 17.216 14.0199 16.988 13.5879 16.532C13.1679 16.064 12.9579 15.392 12.9579 14.516V10.88C12.9579 10.412 12.9339 10.064 12.8859 9.836C12.8499 9.608 12.7359 9.446 12.5439 9.35C12.3639 9.254 12.0519 9.176 11.6079 9.116C11.5479 8.96 11.5479 8.81 11.6079 8.666C12.1239 8.594 12.6159 8.516 13.0839 8.432C13.5639 8.348 14.0439 8.246 14.5239 8.126L14.7939 8.252C14.7819 8.624 14.7699 8.978 14.7579 9.314C14.7579 9.638 14.7579 9.944 14.7579 10.232V13.868C14.7579 14.588 14.8659 15.128 15.0819 15.488C15.3099 15.836 15.7479 16.01 16.3959 16.01C16.7559 16.01 17.0919 15.932 17.4039 15.776C17.7279 15.608 18.0339 15.368 18.3219 15.056V10.88C18.3219 10.412 18.2979 10.064 18.2499 9.836C18.2139 9.608 18.0999 9.446 17.9079 9.35C17.7279 9.254 17.4159 9.176 16.9719 9.116C16.9359 8.96 16.9359 8.81 16.9719 8.666C17.4879 8.594 17.9799 8.516 18.4479 8.432C18.9279 8.348 19.4139 8.246 19.9059 8.126L20.1759 8.252C20.1639 8.624 20.1519 8.978 20.1399 9.314C20.1399 9.638 20.1399 9.944 20.1399 10.232V14.894C20.1399 15.254 20.1579 15.524 20.1939 15.704C20.2419 15.884 20.3619 16.016 20.5539 16.1C20.7579 16.172 21.0879 16.232 21.5439 16.28C21.5559 16.424 21.5559 16.574 21.5439 16.73C21.0279 16.778 20.5359 16.838 20.0679 16.91C19.5999 16.982 19.1439 17.072 18.6999 17.18L18.4119 17.054L18.3759 15.794C17.3799 16.742 16.3899 17.216 15.4059 17.216ZM25.774 17.216C25.054 17.216 24.484 17.048 24.064 16.712C23.644 16.364 23.434 15.866 23.434 15.218C23.434 14.162 23.44 13.142 23.452 12.158C23.476 11.174 23.494 10.226 23.506 9.314H22.138C22.102 9.134 22.102 8.972 22.138 8.828C23.326 8.324 24.22 7.502 24.82 6.362C24.916 6.362 25.012 6.368 25.108 6.38C25.204 6.38 25.288 6.386 25.36 6.398C25.348 6.71 25.336 7.04 25.324 7.388C25.324 7.736 25.318 8.102 25.306 8.486H28.042C28.078 8.75 28.078 9.026 28.042 9.314H25.306C25.282 10.154 25.264 11.042 25.252 11.978C25.252 12.902 25.252 13.832 25.252 14.768C25.252 15.74 25.756 16.226 26.764 16.226C27.196 16.226 27.598 16.112 27.97 15.884C28.078 16.028 28.144 16.208 28.168 16.424C27.46 16.952 26.662 17.216 25.774 17.216ZM33.2357 17.216C32.3597 17.216 31.5917 17.03 30.9317 16.658C30.2837 16.274 29.7797 15.752 29.4197 15.092C29.0597 14.42 28.8797 13.652 28.8797 12.788C28.8797 11.852 29.0657 11.036 29.4377 10.34C29.8217 9.644 30.3557 9.104 31.0397 8.72C31.7237 8.336 32.5097 8.144 33.3977 8.144C34.2737 8.144 35.0357 8.336 35.6837 8.72C36.3317 9.104 36.8357 9.632 37.1957 10.304C37.5557 10.976 37.7357 11.738 37.7357 12.59C37.7357 13.466 37.5437 14.258 37.1597 14.966C36.7877 15.662 36.2657 16.214 35.5937 16.622C34.9217 17.018 34.1357 17.216 33.2357 17.216ZM30.9137 12.572C30.9137 13.796 31.1117 14.768 31.5077 15.488C31.9157 16.196 32.5217 16.55 33.3257 16.55C34.0937 16.55 34.6817 16.214 35.0897 15.542C35.4977 14.858 35.7017 13.946 35.7017 12.806C35.7017 11.594 35.4977 10.628 35.0897 9.908C34.6817 9.188 34.0877 8.828 33.3077 8.828C32.5397 8.828 31.9457 9.158 31.5257 9.818C31.1177 10.478 30.9137 11.396 30.9137 12.572ZM38.9469 17.018C38.9109 16.826 38.9109 16.64 38.9469 16.46C39.3549 16.436 39.6549 16.4 39.8469 16.352C40.0389 16.292 40.1649 16.172 40.2249 15.992C40.2849 15.812 40.3149 15.524 40.3149 15.128V11.096C40.3149 10.628 40.2909 10.28 40.2429 10.052C40.2069 9.824 40.0929 9.668 39.9009 9.584C39.7209 9.488 39.4089 9.41 38.9649 9.35C38.9289 9.182 38.9289 9.026 38.9649 8.882C39.4449 8.786 39.9129 8.678 40.3689 8.558C40.8249 8.426 41.3049 8.258 41.8089 8.054L42.1149 8.162V9.746C42.9549 8.678 43.8129 8.144 44.6889 8.144C45.1089 8.144 45.4209 8.258 45.6249 8.486C45.8289 8.702 45.9309 8.948 45.9309 9.224C45.9309 9.548 45.8229 9.8 45.6069 9.98C45.3909 10.148 45.1449 10.232 44.8689 10.232C44.6409 10.232 44.4129 10.172 44.1849 10.052C43.9689 9.932 43.8069 9.746 43.6989 9.494C43.2909 9.494 42.9249 9.656 42.6009 9.98C42.2889 10.292 42.1329 10.658 42.1329 11.078V14.948C42.1329 15.416 42.1569 15.752 42.2049 15.956C42.2649 16.16 42.4089 16.292 42.6369 16.352C42.8769 16.4 43.2609 16.436 43.7889 16.46C43.8129 16.628 43.8129 16.814 43.7889 17.018C43.3809 17.018 42.9609 17.012 42.5289 17C42.0969 16.988 41.6529 16.982 41.1969 16.982C40.7529 16.982 40.3569 16.988 40.0089 17C39.6729 17.012 39.3189 17.018 38.9469 17.018ZM50.8298 17.018C50.4938 17.018 50.1458 17.012 49.7858 17C49.4258 16.988 49.0358 16.982 48.6158 16.982C48.2318 16.982 47.8418 16.988 47.4458 17C47.0618 17.012 46.6898 17.018 46.3298 17.018C46.2938 16.826 46.2938 16.64 46.3298 16.46C46.7378 16.436 47.0378 16.4 47.2298 16.352C47.4218 16.292 47.5478 16.172 47.6078 15.992C47.6678 15.812 47.6978 15.524 47.6978 15.128V11.096C47.6978 10.628 47.6798 10.28 47.6438 10.052C47.6078 9.824 47.4938 9.668 47.3018 9.584C47.1217 9.488 46.8038 9.41 46.3478 9.35C46.3118 9.182 46.3118 9.026 46.3478 8.882C46.8758 8.786 47.3798 8.666 47.8598 8.522C48.3398 8.378 48.8018 8.222 49.2458 8.054L49.5518 8.162C49.5398 8.534 49.5278 8.882 49.5158 9.206C49.5158 9.53 49.5158 9.836 49.5158 10.124V14.948C49.5158 15.416 49.5398 15.752 49.5878 15.956C49.6478 16.16 49.7678 16.292 49.9478 16.352C50.1398 16.4 50.4338 16.436 50.8298 16.46C50.8658 16.64 50.8658 16.826 50.8298 17.018ZM47.2298 4.994C47.2298 4.646 47.3498 4.352 47.5898 4.112C47.8418 3.872 48.1418 3.752 48.4897 3.752C48.8258 3.752 49.1138 3.872 49.3538 4.112C49.6058 4.352 49.7318 4.64 49.7318 4.976C49.7318 5.288 49.6118 5.576 49.3718 5.84C49.1318 6.092 48.8258 6.218 48.4538 6.218C48.1178 6.218 47.8298 6.098 47.5898 5.858C47.3498 5.618 47.2298 5.33 47.2298 4.994ZM58.0991 17.18C57.3071 17.18 56.8091 16.784 56.6051 15.992C55.7531 16.808 54.8831 17.216 53.9951 17.216C53.3831 17.216 52.8611 17.036 52.4291 16.676C52.0091 16.304 51.7991 15.794 51.7991 15.146C51.7991 13.562 53.4131 12.566 56.6411 12.158C56.6411 11.87 56.6411 11.576 56.6411 11.276C56.6531 10.976 56.6591 10.658 56.6591 10.322C56.6591 9.902 56.5031 9.578 56.1911 9.35C55.8911 9.11 55.5251 8.99 55.0931 8.99C54.7811 8.99 54.5171 9.038 54.3011 9.134C54.3011 9.41 54.2411 9.692 54.1211 9.98C54.0011 10.268 53.8331 10.514 53.6171 10.718C53.4131 10.91 53.1611 11.006 52.8611 11.006C52.5971 11.006 52.3871 10.934 52.2311 10.79C52.0871 10.634 52.0151 10.448 52.0151 10.232C52.0151 9.944 52.1471 9.674 52.4111 9.422C52.6871 9.158 53.0351 8.936 53.4551 8.756C53.8751 8.564 54.3131 8.414 54.7691 8.306C55.2251 8.198 55.6331 8.144 55.9931 8.144C56.4371 8.144 56.8451 8.228 57.2171 8.396C57.6011 8.552 57.9071 8.792 58.1351 9.116C58.3751 9.428 58.4951 9.818 58.4951 10.286C58.4951 10.574 58.4891 10.952 58.4771 11.42C58.4651 11.876 58.4531 12.368 58.4411 12.896C58.4411 13.412 58.4351 13.904 58.4231 14.372C58.4111 14.84 58.4051 15.218 58.4051 15.506C58.4051 15.89 58.5731 16.082 58.9091 16.082C59.1251 16.082 59.4551 16.01 59.8991 15.866C59.9471 15.926 59.9771 15.992 59.9891 16.064C60.0131 16.136 60.0311 16.202 60.0431 16.262C59.7431 16.586 59.4251 16.82 59.0891 16.964C58.7651 17.108 58.4351 17.18 58.0991 17.18ZM56.6051 15.506L56.6411 12.806C55.5371 12.95 54.7751 13.184 54.3551 13.508C53.9471 13.832 53.7431 14.246 53.7431 14.75C53.7431 15.17 53.8511 15.494 54.0671 15.722C54.2951 15.938 54.5771 16.046 54.9131 16.046C55.1291 16.046 55.3691 15.998 55.6331 15.902C55.9091 15.806 56.2331 15.674 56.6051 15.506Z" fill="white"/>
<path fill-rule="evenodd" clip-rule="evenodd" d="M61.8569 12.1489C61.7576 12.0496 61.6396 12 61.5029 12C61.3662 12 61.2482 12.0496 61.1489 12.1489C61.0496 12.2482 61 12.3646 61 12.498C61 12.638 61.0496 12.7576 61.1489 12.8569C61.2482 12.9562 61.3678 13.0059 61.5078 13.0059C61.6445 13.0059 61.7617 12.9562 61.8594 12.8569C61.957 12.7576 62.0059 12.6413 62.0059 12.5078C62.0059 12.3678 61.9562 12.2482 61.8569 12.1489ZM64.7378 12.1416C64.645 12.0472 64.5286 12 64.3887 12C64.2422 12 64.1193 12.0513 64.02 12.1538C63.9207 12.2563 63.8711 12.3809 63.8711 12.5273C63.8711 12.6706 63.9167 12.7861 64.0078 12.874C64.099 12.9619 64.2178 13.0059 64.3643 13.0059C64.5075 13.0059 64.6287 12.957 64.728 12.8594C64.8273 12.7617 64.877 12.6413 64.877 12.498C64.877 12.3548 64.8306 12.236 64.7378 12.1416ZM61.5078 14.8369C61.6478 14.8369 61.7666 14.8849 61.8643 14.981C61.9619 15.077 62.0107 15.1934 62.0107 15.3301C62.0107 15.4733 61.9619 15.5946 61.8643 15.6938C61.7666 15.7931 61.6478 15.8428 61.5078 15.8428C61.3678 15.8428 61.249 15.7939 61.1514 15.6963C61.0537 15.5986 61.0049 15.4782 61.0049 15.335C61.0049 15.195 61.0529 15.077 61.1489 14.981C61.245 14.8849 61.3646 14.8369 61.5078 14.8369ZM64.7158 14.9785C64.6149 14.8809 64.4945 14.8353 64.3545 14.8418C64.208 14.8483 64.0892 14.9004 63.998 14.998C63.9069 15.0957 63.8613 15.2178 63.8613 15.3643C63.8613 15.6865 64.0225 15.8477 64.3447 15.8477C64.4912 15.8477 64.6149 15.7988 64.7158 15.7012C64.8167 15.6035 64.8672 15.4831 64.8672 15.3398C64.8672 15.1966 64.8167 15.0762 64.7158 14.9785Z" fill="white"/>
</svg>
